<?xml version="1.0" standalone="no"?>
<!DOCTYPE svg PUBLIC "-//W3C//DTD SVG 20010904//EN"
 "http://www.w3.org/TR/2001/REC-SVG-20010904/DTD/svg10.dtd">
<svg version="1.0" xmlns="http://www.w3.org/2000/svg"
 width="512.000000pt" height="512.000000pt" viewBox="0 0 512.000000 512.000000"
 preserveAspectRatio="xMidYMid meet">
<metadata>
Created by potrace 1.14, written by Peter Selinger 2001-2017
</metadata>
<g transform="translate(0.000000,512.000000) scale(0.100000,-0.100000)"
fill="#000000" stroke="none">
<path d="M1963 4844 c5 -9 -10 -11 -53 -9 -59 3 -60 2 -60 -24 -1 -14 -2 -63
-3 -109 -1 -49 2 -82 8 -82 7 0 7 -3 0 -8 -5 -4 -10 -38 -10 -77 0 -38 5 -73
10 -77 7 -5 7 -8 0 -8 -6 0 -9 -35 -8 -90 l2 -90 -27 -1 c-15 0 -110 -1 -212
-2 l-185 -2 -1 -130 c-1 -71 -2 -135 -3 -140 -1 -7 -50 -11 -140 -10 -117 0
-141 -2 -143 -15 -2 -8 -3 -72 -2 -142 1 -91 -1 -128 -9 -129 -7 -1 -70 -2
-142 -2 l-130 -2 -2 -435 c-1 -239 -2 -462 -3 -496 l0 -60 -282 0 -283 1 0
-142 c-1 -120 1 -142 15 -145 8 -2 135 -3 282 -3 l268 1 0 -26 c1 -14 1 -237
2 -496 l0 -471 267 0 c146 -1 275 -1 286 -2 20 -1 20 -8 19 -355 l-1 -355 355
2 354 2 0 353 0 352 21 1 c71 3 805 3 818 1 15 -3 17 -37 17 -355 l0 -352 355
-1 354 -2 -1 354 c-1 306 1 353 14 356 8 2 137 3 286 2 l272 -1 0 456 c1 251
1 474 1 497 l1 40 283 0 282 -1 1 135 c0 74 -3 140 -7 145 -5 6 -110 10 -283
9 l-276 -1 -1 26 c0 14 0 238 0 497 l-1 470 -116 1 c-64 0 -128 1 -142 2 l-26
1 1 133 c1 72 -2 137 -6 142 -4 6 -63 10 -143 9 -117 0 -136 2 -137 15 0 9 -1
72 -2 141 l-2 125 -211 0 -212 0 2 283 c0 155 -1 283 -4 283 -3 1 -67 2 -142
3 -133 2 -138 2 -139 -18 0 -12 -1 -139 0 -283 l0 -263 -47 0 c-77 -1 -713 -1
-763 -1 l-47 1 0 238 c-1 130 -1 257 -1 282 l-1 46 -72 -1 c-40 -1 -79 4 -87
9 -11 8 -13 8 -8 0z m277 -1573 l35 -1 -1 -562 c-1 -310 -2 -566 -3 -569 0 -4
-127 -7 -281 -7 -208 0 -280 2 -280 11 -1 7 -2 263 -3 569 l-2 557 50 3 c40 2
299 2 485 -1z m1171 -41 c0 -65 0 -1051 0 -1076 -1 -21 -3 -21 -281 -22 -209
-1 -280 2 -281 11 -1 7 -2 262 -3 567 -1 431 1 556 11 560 7 3 134 5 283 5
l270 0 1 -45z"/>
<path d="M0 3485 l0 -781 135 -1 c89 0 138 4 143 11 3 6 7 356 7 779 0 674 -2
768 -15 772 -8 3 -72 4 -142 3 l-128 -1 0 -782z"/>
<path d="M4839 4266 c-1 0 -2 -352 -3 -782 l-1 -781 140 1 140 1 3 782 2 782
-140 -1 c-77 0 -141 -1 -141 -2z"/>
<path d="M888 712 l-38 -3 3 -282 2 -282 282 -1 c248 0 282 2 285 15 6 26 2
540 -4 546 -10 11 -188 11 -188 0 0 -7 -3 -7 -8 0 -4 6 -55 10 -117 10 -62 0
-113 -4 -117 -10 -5 -7 -8 -7 -8 0 0 10 -27 12 -92 7z"/>
<path d="M3719 710 l-23 -6 0 -273 c-1 -150 1 -276 4 -280 3 -4 132 -8 286 -8
l281 0 1 284 c1 259 -1 283 -16 284 -93 4 -516 3 -533 -1z"/>
</g>
</svg>
